<svg xmlns="http://www.w3.org/2000/svg" width="256" height="256" viewBox="0 0 100 100"><rect width="100" height="100" rx="0" fill="#bcc8d7"></rect><path d="M25.01 25.44L25.01 25.44Q28.36 25.44 30.10 26.21Q31.84 26.99 33.18 27.92L33.18 27.92Q33.99 28.39 34.49 28.63Q34.99 28.86 35.46 28.86L35.46 28.86Q36.53 28.86 36.94 25.91L36.94 25.91L38.48 25.91Q38.41 27.05 38.31 28.63Q38.21 30.20 38.17 32.78Q38.14 35.36 38.14 39.58L38.14 39.58L36.60 39.58Q36.40 36.37 35.19 33.42Q33.99 30.47 31.68 28.59Q29.36 26.72 25.61 26.72L25.61 26.72Q22.06 26.72 19.75 28.86Q17.44 31.01 17.44 34.49L17.44 34.49Q17.44 37.50 18.98 39.55Q20.52 41.59 23.10 43.23Q25.68 44.87 28.69 46.75L28.69 46.75Q32.18 48.89 34.89 51.00Q37.61 53.12 39.18 55.66Q40.75 58.21 40.75 61.83L40.75 61.83Q40.75 66.11 38.81 68.93Q36.87 71.74 33.65 73.15Q30.44 74.56 26.55 74.56L26.55 74.56Q23.00 74.56 20.92 73.75Q18.85 72.95 17.37 72.08L17.37 72.08Q15.90 71.14 15.09 71.14L15.09 71.14Q14.02 71.14 13.62 74.09L13.62 74.09L12.08 74.09Q12.21 72.68 12.25 70.77Q12.28 68.86 12.31 65.78Q12.35 62.70 12.35 58.01L12.35 58.01L13.89 58.01Q14.16 62.03 15.39 65.51Q16.63 68.99 19.21 71.10Q21.79 73.22 26.08 73.22L26.08 73.22Q29.36 73.22 32.08 71.10Q34.79 68.99 34.79 64.30L34.79 64.30Q34.79 60.22 31.91 57.54Q29.03 54.86 24.34 52.04L24.34 52.04Q21.19 50.10 18.44 48.09Q15.70 46.08 14.05 43.43Q12.41 40.79 12.41 37.04L12.41 37.04Q12.41 33.08 14.19 30.50Q15.96 27.92 18.85 26.68Q21.73 25.44 25.01 25.44ZM87.92 26.18L87.92 26.18L87.92 27.52Q85.64 27.59 84.47 28.19Q83.30 28.79 82.90 30.13Q82.50 31.47 82.50 33.95L82.50 33.95L82.50 54.12Q82.50 58.81 81.89 62.29Q81.29 65.78 79.75 68.32L79.75 68.32Q78.07 71.14 74.86 72.85Q71.64 74.56 67.49 74.56L67.49 74.56Q64.27 74.56 61.36 73.78Q58.44 73.01 56.23 70.94L56.23 70.94Q54.29 69.06 53.18 66.98Q52.08 64.91 51.68 61.89Q51.27 58.88 51.27 54.32L51.27 54.32L51.27 33.28Q51.27 30.80 50.87 29.63Q50.47 28.46 49.30 28.02Q48.12 27.59 45.85 27.52L45.85 27.52L45.85 26.18Q47.25 26.25 49.53 26.32Q51.81 26.38 54.42 26.38L54.42 26.38Q56.77 26.38 59.08 26.32Q61.39 26.25 62.93 26.18L62.93 26.18L62.93 27.52Q60.65 27.59 59.48 28.02Q58.31 28.46 57.91 29.63Q57.50 30.80 57.50 33.28L57.50 33.28L57.50 55.46Q57.50 60.02 58.17 63.84Q58.84 67.65 61.09 69.93Q63.33 72.21 68.09 72.21L68.09 72.21Q73.18 72.21 75.96 69.97Q78.74 67.72 79.85 63.77Q80.95 59.82 80.95 54.86L80.95 54.86L80.95 33.95Q80.95 31.47 80.38 30.13Q79.81 28.79 78.48 28.19Q77.14 27.59 74.86 27.52L74.86 27.52L74.86 26.18Q76.06 26.25 78.04 26.32Q80.02 26.38 81.69 26.38L81.69 26.38Q83.43 26.38 85.14 26.32Q86.85 26.25 87.92 26.18Z" fill="#000000"></path></svg>