<?xml version="1.0" encoding="UTF-8"?><svg id="Layer_7" xmlns="http://www.w3.org/2000/svg" width="354" height="295" viewBox="0 0 354 295"><defs><style>.cls-1{fill:#ffed74;}.cls-2{fill:#ffca74;}.cls-3{fill:#fda757;}.cls-4{fill:#989ea2;}.cls-5{fill:gray;}.cls-6{fill:#3c3c3c;}</style></defs><path class="cls-1" d="m80.71,223.5c-14.56-5.53-25.89-18.76-29.28-33.96s1.19-31.92,11.73-43.38c11.89-12.94,29.58-18.51,46.42-23.56-3.95,5.21-3.4,13.3,1.21,17.93s12.71,5.2,17.93,1.27c7.48-5.63,7.25-16.61,9.35-25.73,5.05-21.82,29.46-37.1,51.29-32.1-7.35-.39-11.9,9.61-8.47,16.12,3.44,6.51,11.68,9.13,19.02,8.55,13.29-1.05,25.33-11.31,28.49-24.26,1.45-5.96,1.4-12.77,5.57-17.26,2.88-3.1,7.17-4.37,11.28-5.36,25.63-6.2,52.64-6.63,78.45-1.24-13.85,5.47-28.01,11.12-39.16,20.99-11.15,9.87-18.88,24.97-15.93,39.57,1.28,6.34,4.48,12.33,4.58,18.8.14,9.17-6.16,17.46-13.97,22.27-7.81,4.81-16.98,6.77-25.95,8.66,3.05,8.45,12.38,14.14,21.28,12.98-1.71,6.62-8.09,11.1-14.66,13.01-6.57,1.91-13.53,1.81-20.31,2.66-7.89.99-15.63,3.27-22.79,6.74-5.62,2.73-11.47,7.07-11.96,13.3-.49,6.23,8.62,11.67,12.2,6.55-1.27,11.98-16.52,16.04-28.55,16.63-20.92,1.02-41.92.46-62.76-1.67-8.96-.92-18.04-2.16-26.23-5.89-24.55-11.16-34.23-46.25-18.86-68.41"/><path class="cls-1" d="m76.79,229.01c-8.6-3.1-15.29-10.52-17.29-19.05s.7-17.9,6.93-24.33c7.02-7.26,17.47-10.38,27.41-13.22-2.33,2.92-2.01,7.46.71,10.06s7.5,2.92,10.59.71c4.42-3.16,4.28-9.32,5.52-14.43,2.98-12.24,17.39-20.81,30.28-18-4.34-.22-7.03,5.39-5,9.04,2.03,3.65,6.9,5.12,11.23,4.8,7.85-.59,14.96-6.35,16.82-13.61.86-3.34.83-7.16,3.29-9.68,1.7-1.74,4.23-2.45,6.66-3.01,15.13-3.48,31.08-3.72,46.32-.69-8.18,3.07-16.54,6.24-23.13,11.77-6.58,5.54-11.15,14.01-9.41,22.19.76,3.56,2.65,6.92,2.7,10.55.08,5.14-3.64,9.79-8.25,12.49s-10.03,3.8-15.33,4.86c1.8,4.74,7.31,7.93,12.57,7.28-1.01,3.71-4.78,6.23-8.66,7.3s-7.99,1.02-11.99,1.49c-4.66.55-9.23,1.84-13.45,3.78-3.32,1.53-6.77,3.97-7.06,7.46s5.09,6.55,7.2,3.67c-.75,6.72-9.75,9-16.86,9.33-12.35.57-24.75.26-37.06-.94-5.29-.51-10.65-1.21-15.49-3.3-14.5-6.26-20.21-25.94-11.14-38.37"/><path class="cls-2" d="m81.36,212.81c1.93,0,1.93-3,0-3s-1.93,3,0,3h0Z"/><ellipse class="cls-1" cx="99.09" cy="209.27" rx="52.79" ry="50.39"/><circle class="cls-1" cx="94.89" cy="211.07" r="50.39"/><circle class="cls-1" cx="59.2" cy="211.37" r="12.3"/><ellipse class="cls-1" cx="79.89" cy="228.77" rx="9.6" ry="8.7"/><circle class="cls-1" cx="99.39" cy="252.17" r="5.7"/><circle class="cls-1" cx="58.9" cy="233.27" r="3.6"/><circle class="cls-1" cx="79.89" cy="211.07" r="3.6"/><circle class="cls-1" cx="94.89" cy="237.47" r="3.6"/><circle class="cls-1" cx="78.99" cy="249.17" r="7.5"/><path class="cls-6" d="m108.57,242.23c1.93,0,1.93-3,0-3s-1.93,3,0,3h0Z"/><path class="cls-6" d="m113.03,250.77c1.93,0,1.93-3,0-3s-1.93,3,0,3h0Z"/><path class="cls-6" d="m65.99,243.52c1.93,0,1.93-3,0-3s-1.93,3,0,3h0Z"/><path class="cls-6" d="m73.7,202.99c1.93,0,1.93-3,0-3s-1.93,3,0,3h0Z"/><path class="cls-2" d="m66.92,222.3c-14.56-5.53-25.89-18.76-29.28-33.96-3.39-15.2,1.19-31.92,11.73-43.38,11.89-12.94,29.58-18.51,46.42-23.56-3.95,5.21-3.4,13.3,1.21,17.93,4.61,4.63,12.71,5.2,17.93,1.27,7.48-5.63,7.25-16.61,9.35-25.73,5.05-21.82,29.46-37.1,51.29-32.1-7.35-.39-11.9,9.61-8.47,16.12,3.44,6.51,11.68,9.13,19.02,8.55,13.29-1.05,25.33-11.31,28.49-24.26,1.45-5.96,1.4-12.77,5.57-17.26,2.88-3.1,7.17-4.37,11.28-5.36,25.63-6.2,52.64-6.63,78.45-1.24-13.85,5.47-28.01,11.12-39.16,20.99-11.15,9.87-18.88,24.97-15.93,39.57,1.28,6.34,4.48,12.33,4.58,18.8.14,9.17-6.16,17.46-13.97,22.27s-16.98,6.77-25.95,8.66c3.05,8.45,12.38,14.14,21.28,12.98-1.71,6.62-8.09,11.1-14.66,13.01s-13.53,1.81-20.31,2.66c-7.89.99-15.63,3.27-22.79,6.74-5.62,2.73-11.47,7.07-11.96,13.3-.49,6.23,8.62,11.67,12.2,6.55-1.27,11.98-16.52,16.04-28.55,16.63-20.92,1.02-41.92.46-62.76-1.67-8.96-.92-18.04-2.16-26.23-5.89-24.55-11.16-34.23-46.25-18.86-68.41"/><path class="cls-3" d="m62.99,227.81c-8.6-3.1-15.29-10.52-17.29-19.05s.7-17.9,6.93-24.33c7.02-7.26,17.47-10.38,27.41-13.22-2.33,2.92-2.01,7.46.71,10.06s7.5,2.92,10.59.71c4.42-3.16,4.28-9.32,5.52-14.43,2.98-12.24,17.39-20.81,30.28-18-4.34-.22-7.03,5.39-5,9.04s6.9,5.12,11.23,4.8c7.85-.59,14.96-6.35,16.82-13.61.86-3.34.83-7.16,3.29-9.68,1.7-1.74,4.23-2.45,6.66-3.01,15.13-3.48,31.08-3.72,46.32-.69-8.18,3.07-16.54,6.24-23.13,11.77s-11.15,14.01-9.41,22.19c.76,3.56,2.65,6.92,2.7,10.55.08,5.14-3.64,9.79-8.25,12.49s-10.03,3.8-15.33,4.86c1.8,4.74,7.31,7.93,12.57,7.28-1.01,3.71-4.78,6.23-8.66,7.3s-7.99,1.02-11.99,1.49c-4.66.55-9.23,1.84-13.45,3.78-3.32,1.53-6.77,3.97-7.06,7.46s5.09,6.55,7.2,3.67c-.75,6.72-9.75,9-16.86,9.33-12.35.57-24.75.26-37.06-.94-5.29-.51-10.65-1.21-15.49-3.3-14.5-6.26-20.21-25.94-11.14-38.37"/><path class="cls-2" d="m67.56,211.61c1.93,0,1.93-3,0-3s-1.93,3,0,3h0Z"/><ellipse class="cls-5" cx="85.29" cy="208.08" rx="52.79" ry="50.39"/><circle class="cls-4" cx="81.09" cy="209.87" r="50.39"/><circle class="cls-6" cx="45.4" cy="210.17" r="12.3"/><ellipse class="cls-6" cx="66.1" cy="227.57" rx="9.6" ry="8.7"/><circle class="cls-6" cx="85.59" cy="250.97" r="5.7"/><circle class="cls-6" cx="45.1" cy="232.07" r="3.6"/><circle class="cls-6" cx="66.1" cy="209.87" r="3.6"/><circle class="cls-6" cx="81.09" cy="236.27" r="3.6"/><circle class="cls-6" cx="65.2" cy="247.97" r="7.5"/><path class="cls-6" d="m94.77,241.03c1.93,0,1.93-3,0-3s-1.93,3,0,3h0Z"/><path class="cls-6" d="m99.23,249.57c1.93,0,1.93-3,0-3s-1.93,3,0,3h0Z"/><path class="cls-6" d="m52.19,242.32c1.93,0,1.93-3,0-3s-1.93,3,0,3h0Z"/><path class="cls-6" d="m59.9,201.79c1.93,0,1.93-3,0-3s-1.93,3,0,3h0Z"/></svg>