<?xml version="1.0" encoding="UTF-8"?><svg id="Layer_7" xmlns="http://www.w3.org/2000/svg" width="442" height="297" xmlns:xlink="http://www.w3.org/1999/xlink" viewBox="0 0 442 297"><defs><style>.cls-1{fill:#fff;}.cls-2{fill:#bfcdff;}.cls-3{fill:#9372df;opacity:.65;}.cls-3,.cls-4,.cls-5{stroke-miterlimit:10;}.cls-3,.cls-5{stroke:#fff;}.cls-4{fill:url(#Orchid);opacity:.82;stroke:url(#Orchid-2);stroke-width:5px;}.cls-5{fill:#d6cbff;stroke-width:3px;}</style><linearGradient id="Orchid" x1="29.51" y1="140.19" x2="387.89" y2="140.19" gradientUnits="userSpaceOnUse"><stop offset="0" stop-color="#ff7bac"/><stop offset=".22" stop-color="#ff7bac" stop-opacity=".76"/><stop offset=".6" stop-color="#ff7bac" stop-opacity=".36"/><stop offset=".87" stop-color="#ff7bac" stop-opacity=".1"/><stop offset="1" stop-color="#ff7bac" stop-opacity="0"/></linearGradient><linearGradient id="Orchid-2" x1="27.01" x2="390.39" xlink:href="#Orchid"/></defs><rect class="cls-3" x="29.89" y="44.42" width="377" height="209" rx="52.24" ry="52.24"/><rect class="cls-2" x="29.51" y="43.98" width="357.89" height="191.9" rx="52.24" ry="52.24"/><rect class="cls-4" x="29.51" y="43.98" width="358.38" height="192.42" rx="52.24" ry="52.24"/><path class="cls-5" d="m136.46,74.41h17.94c4.85,0,8.58.69,11.19,2.08s4.57,3.39,5.88,6.01c1.31,2.62,2.2,5.79,2.67,9.52.47,3.73.7,9.49.7,17.3v10.87c0,7.96-.45,13.77-1.35,17.42-.9,3.65-2.56,6.45-4.97,8.4-2.41,1.95-5.57,2.93-9.46,2.93h-4.78v50.25h-17.82v-124.77Zm17.82,21.35v31.75c.51.05.95.08,1.31.08,1.64,0,2.77-.73,3.41-2.2.63-1.46.95-4.51.95-9.13v-10.25c0-4.26-.37-7.04-1.1-8.32-.73-1.28-2.26-1.93-4.57-1.93Z"/><path class="cls-5" d="m197.78,74.41v99.8h10.83v24.97h-28.65v-124.77h17.82Z"/><path class="cls-5" d="m245.89,74.41l10.19,124.77h-18.21l-.96-22.43h-6.37l-1.07,22.43h-18.42l9.09-124.77h25.75Zm-9.44,80.23c-.9-14.13-1.81-31.6-2.71-52.41-1.82,23.89-2.96,41.36-3.42,52.41h6.13Z"/><path class="cls-5" d="m291.86,74.41l-12.99,79.61v45.16h-16.5v-45.16l-12.53-79.61h16.37c2.56,24.35,4,40.74,4.33,49.17.99-13.31,2.64-29.7,4.96-49.17h16.37Z"/><path class="cls-1" d="m340.11,67.78c11.06.42,16.54,11.53,18.75,20.96,2.68,11.45,2.93,23.51,2.05,35.18-.58,7.7,11.42,7.67,12,0,1.79-23.73-.52-66.93-32.8-68.14-7.72-.29-7.71,11.71,0,12h0Z"/><path class="cls-1" d="m363.5,145.28c-.48,10.75-.96,21.5-1.44,32.25-.35,7.72,11.66,7.7,12,0,.48-10.75.96-21.5,1.44-32.25.35-7.72-11.66-7.7-12,0h0Z"/></svg>