<?xml version="1.0" encoding="UTF-8"?><svg id="you_lose" xmlns="http://www.w3.org/2000/svg" width="202" height="324" viewBox="0 0 202 324"><defs><style>.cls-1{fill:#fff;}.cls-2{fill:#d6e3ff;}.cls-3{fill:#dcb4ff;}.cls-4{fill:#5c0094;}</style></defs><path class="cls-4" d="m47.96,288.19l-6.88-2.79c-6.22-2.52-9.22-9.72-6.69-16.08l60.2-151.63c2.53-6.36,9.62-9.47,15.84-6.95l6.88,2.79c6.22,2.52,9.22,9.72,6.69,16.08l-60.2,151.63c-2.53,6.36-9.62,9.47-15.84,6.95Z"/><path class="cls-4" d="m48.81,248.44l39.07-98.41c.37-.92,1.4-1.38,2.3-1.01h0c.9.37,1.34,1.41.97,2.34l-39.07,98.41c-.37.92-1.4,1.38-2.3,1.01h0c-.9-.37-1.34-1.41-.97-2.34Z"/><path class="cls-4" d="m121.12,122.53c8.81,1.77,21.12,4.24,32.87-1.46,11.92-5.78,16.39-16.62,20.73-27.62,3.69-9.34,9.06-27.52,4.66-52.12-20.96,20.94-29.5,27.99-31.69,28.18-.24.02-1.86.05-3.12,1.1-.78.64-1.21,1.61-1.61,2.55-2.57,5.94-5.13,11.87-7.7,17.81-5.76-2.16-11.7-3.83-17.74-4.99,1.94-6.58,3.89-13.16,5.83-19.73.54-1.84,1.09-3.76.72-5.64-.27-1.41-1.04-2.65-1.8-3.85-5.97-9.41-12.54-18.42-19.65-26.96-11.35,12.46-19.21,28.18-22.41,44.82-1.96,10.17-.74,14.99-.07,17.27.32,1.09,1.68,5.47,5.61,10.61,11.37,14.87,31.36,19.24,35.36,20.05Z"/><path class="cls-3" d="m37.51,278.48l-7.96-2.6c-7.19-2.35-10.93-9.56-8.35-16.1l61.46-156.05c2.58-6.55,10.5-9.95,17.69-7.6l7.96,2.6c7.19,2.35,10.93,9.56,8.35,16.1l-61.46,156.05c-2.58,6.55-10.5,9.95-17.69,7.6Z"/><path class="cls-1" d="m36.65,238.08l39.89-101.28c.37-.95,1.53-1.45,2.57-1.11h0c1.05.34,1.59,1.39,1.21,2.34l-39.89,101.28c-.37.95-1.53,1.45-2.57,1.11h0c-1.05-.34-1.59-1.39-1.21-2.34Z"/><path class="cls-3" d="m113.06,107.74c11.45,5.84,26.4,4.04,37.32-2.61,10.92-6.64,18.15-17.42,22.3-28.76,4.15-11.34,5.51-23.34,6.84-35.23-12.27,5.43-25.3,9.42-38.68,11.84-1.24.22-2.55.46-3.5,1.22-.86.68-1.3,1.68-1.72,2.64-2.64,6.12-5.29,12.23-7.93,18.35-6.65-2-13.48-3.49-20.4-4.46,1.91-6.75,3.81-13.49,5.72-20.24.53-1.88,1.07-3.86.56-5.75-.38-1.42-1.31-2.66-2.23-3.85-7.22-9.35-15.11-18.28-23.59-26.71-12.33,13.04-20.54,29.27-23.42,46.28-.99,5.84-1.33,11.94.72,17.54,1.43,3.91,3.98,7.41,6.87,10.58,11.11,12.17,27.89,19.91,45.24,20.85"/><path class="cls-3" d="m112.3,109.03c12.92,6.49,29.15,4.1,40.86-3.91,12.18-8.34,19.55-21.7,23.28-35.72,2.46-9.24,3.52-18.78,4.58-28.26.14-1.26-1.35-1.7-2.26-1.3-8.11,3.58-16.5,6.49-25.07,8.75-4.38,1.15-8.8,2.11-13.25,2.94-1.75.32-3.52.76-4.74,2.17-1.39,1.6-2.04,3.91-2.87,5.82-2.15,4.97-4.3,9.94-6.45,14.91l1.69-.69c-6.68-1.99-13.5-3.48-20.4-4.46l1.05,1.85c1.26-4.47,2.53-8.94,3.79-13.42.64-2.28,1.29-4.55,1.93-6.83.56-1.99,1.06-4.04.66-6.11s-1.65-3.58-2.86-5.14c-1.38-1.78-2.78-3.55-4.21-5.3-2.81-3.45-5.71-6.83-8.69-10.14-3.41-3.79-6.94-7.48-10.55-11.08-.56-.56-1.56-.59-2.12,0-12.29,13.06-20.99,29.62-23.88,47.39-.79,4.83-1.14,9.78-.13,14.61s3.31,8.63,6.23,12.25c5.38,6.66,12.43,12.03,20.02,15.92,8.76,4.49,18.41,7.08,28.23,7.64,1.93.11,1.92-2.89,0-3-16.29-.93-32.44-7.88-43.65-19.84-2.92-3.11-5.65-6.64-7.09-10.7-1.59-4.49-1.6-9.31-1.02-13.99,1.04-8.41,3.62-16.73,7.21-24.39,4.09-8.73,9.59-16.74,16.2-23.77h-2.12c6,5.97,11.73,12.2,17.16,18.69,1.35,1.61,2.68,3.24,3.99,4.89s2.62,3.11,3.64,4.83c1.11,1.87.81,3.77.27,5.77-.57,2.11-1.18,4.2-1.78,6.3-1.37,4.86-2.75,9.73-4.12,14.59-.2.71.25,1.73,1.05,1.85,6.9.98,13.72,2.47,20.4,4.46.57.17,1.44-.1,1.69-.69,1.85-4.28,3.7-8.56,5.55-12.84.9-2.07,1.72-4.19,2.7-6.23.9-1.86,2.33-2.14,4.23-2.49,8.58-1.57,17.04-3.77,25.28-6.62,4.58-1.58,9.09-3.37,13.52-5.33l-2.26-1.3c-1.69,15.06-3.51,30.64-11.03,44.09-6.63,11.87-17.37,21.16-30.94,23.8-7.43,1.45-15.41.83-22.24-2.59-1.72-.86-3.24,1.72-1.51,2.59h0Z"/><path class="cls-2" d="m91.6,35.36c-.02.91-7.99-.99-13.09,3.88-6.1,5.82-4.91,18.26-6.04,18.21-1.02-.04.64-9.92-4.03-15.89-5.11-6.52-15.13-5-15.1-6.2.02-1.16,9.27.77,14.43-5.04,5.28-5.94,3.7-17.05,4.7-17.05.98,0-.46,10.67,4.7,16.66,5.16,5.99,14.46,4.45,14.43,5.43Z"/></svg>