<?xml version="1.0" encoding="UTF-8"?><svg id="Layer_9" xmlns="http://www.w3.org/2000/svg" width="380.38" height="212.44" xmlns:xlink="http://www.w3.org/1999/xlink" viewBox="0 0 380.38 212.44"><defs><style>.cls-1{fill:#fff;}.cls-2{fill:#bfcdff;}.cls-3{fill:#9372df;opacity:.65;}.cls-3,.cls-4,.cls-5{stroke-miterlimit:10;}.cls-3,.cls-5{stroke:#fff;}.cls-4{fill:url(#Orchid);opacity:.82;stroke:url(#Orchid-2);stroke-width:5px;}.cls-5{fill:#d6cbff;stroke-width:3px;}</style><linearGradient id="Orchid" x1="2.5" y1="98.71" x2="360.88" y2="98.71" gradientUnits="userSpaceOnUse"><stop offset="0" stop-color="#ff7bac"/><stop offset=".22" stop-color="#ff7bac" stop-opacity=".76"/><stop offset=".6" stop-color="#ff7bac" stop-opacity=".36"/><stop offset=".87" stop-color="#ff7bac" stop-opacity=".1"/><stop offset="1" stop-color="#ff7bac" stop-opacity="0"/></linearGradient><linearGradient id="Orchid-2" x1="0" x2="363.38" xlink:href="#Orchid"/></defs><rect class="cls-3" x="2.88" y="2.94" width="377" height="209" rx="52.24" ry="52.24"/><rect class="cls-2" x="2.5" y="2.5" width="357.89" height="191.9" rx="52.24" ry="52.24"/><rect class="cls-4" x="2.5" y="2.5" width="358.38" height="192.42" rx="52.24" ry="52.24"/><path class="cls-1" d="m313.1,26.3c11.06.42,16.54,11.53,18.75,20.96,2.68,11.45,2.93,23.51,2.05,35.18-.58,7.7,11.42,7.67,12,0,1.79-23.73-.52-66.93-32.8-68.14-7.72-.29-7.71,11.71,0,12h0Z"/><path class="cls-1" d="m336.48,103.81c-.48,10.75-.96,21.5-1.44,32.25-.35,7.72,11.66,7.7,12,0,.48-10.75.96-21.5,1.44-32.25.35-7.72-11.66-7.7-12,0h0Z"/><path class="cls-5" d="m67.16,52.61v19.73h-8.57v78.85h-14.43v-78.85h-8.54v-19.73h31.54Z"/><path class="cls-5" d="m70.46,52.61h10.21c6.81,0,11.42.47,13.83,1.4,2.41.93,4.38,3.32,5.9,7.15s2.28,9.96,2.28,18.36c0,7.67-.54,12.83-1.61,15.47-1.07,2.64-3.19,4.22-6.34,4.75,2.86,1.26,4.78,2.94,5.76,5.05.98,2.11,1.59,4.05,1.83,5.81.24,1.77.36,6.63.36,14.58v26h-13.4v-32.76c0-5.28-.23-8.54-.7-9.8-.47-1.26-1.7-1.89-3.69-1.89v44.45h-14.43V52.61Zm14.43,16.87v21.92c1.62,0,2.76-.4,3.41-1.19.65-.79.98-3.36.98-7.7v-5.42c0-3.13-.31-5.18-.94-6.15s-1.78-1.46-3.45-1.46Z"/><path class="cls-5" d="m139.01,52.61l-10.52,62.9v35.68h-13.37v-35.68l-10.15-62.9h13.26c2.07,19.24,3.24,32.19,3.5,38.85.8-10.52,2.14-23.47,4.02-38.85h13.26Z"/><path class="cls-5" d="m178.8,52.61l8.25,98.58h-14.75l-.77-17.72h-5.16l-.87,17.72h-14.92l7.36-98.58h20.86Zm-7.65,63.39c-.73-11.17-1.46-24.97-2.2-41.41-1.47,18.88-2.39,32.68-2.77,41.41h4.97Z"/><path class="cls-5" d="m222.62,88.9h-14.43v-8.95c0-5.64-.14-9.17-.41-10.59-.27-1.42-.93-2.13-1.95-2.13-.89,0-1.5.61-1.82,1.83-.32,1.22-.48,4.34-.48,9.38v47.31c0,4.43.16,7.34.48,8.74.32,1.4.96,2.1,1.92,2.1,1.05,0,1.77-.79,2.14-2.38.38-1.58.57-4.67.57-9.26v-11.69h-2.91v-14.98h16.9v52.91h-9.07l-1.33-7.06c-.98,3.04-2.22,5.33-3.72,6.85-1.5,1.52-3.26,2.28-5.3,2.28-2.43,0-4.7-1.05-6.81-3.14s-3.72-4.68-4.82-7.76c-1.1-3.08-1.78-6.32-2.06-9.71-.28-3.39-.41-8.47-.41-15.25v-29.29c0-9.42.29-16.26.86-20.52.57-4.26,2.21-8.17,4.92-11.72,2.71-3.55,6.21-5.33,10.51-5.33s7.73,1.54,10.52,4.63c2.79,3.09,4.6,6.75,5.45,10.99.85,4.24,1.27,10.4,1.27,18.48v4.26Z"/><path class="cls-5" d="m253.15,52.61l8.25,98.58h-14.75l-.78-17.72h-5.16l-.87,17.72h-14.92l7.36-98.58h20.86Zm-7.65,63.39c-.73-11.17-1.46-24.97-2.2-41.41-1.47,18.88-2.39,32.68-2.77,41.41h4.97Z"/><path class="cls-5" d="m278.29,52.61v98.58h-14.43V52.61h14.43Z"/><path class="cls-5" d="m316.3,52.61v98.58h-12.65l-7.51-44.82v44.82h-12.07V52.61h12.07l8.09,44.39v-44.39h12.07Z"/></svg>